<svg xmlns="http://www.w3.org/2000/svg" width="48" height="42.1" viewBox="0 0 48 42.1">
  <g id="Photo" transform="translate(-24 -63)">
    <path id="Path_17" data-name="Path 17" d="M51.7,65a3.631,3.631,0,0,1,2.6,1.1l2.1,2.1A9.757,9.757,0,0,0,63.3,71H64a6.018,6.018,0,0,1,6,6V97a5.6,5.6,0,0,1-1.8,4.2A5.988,5.988,0,0,1,64,103H32a6.018,6.018,0,0,1-6-6V77a5.6,5.6,0,0,1,1.8-4.2A5.988,5.988,0,0,1,32,71h.8a9.933,9.933,0,0,0,6.9-2.8l2.1-2.1A3.631,3.631,0,0,1,44.4,65h7.3m0-2H44.4a5.606,5.606,0,0,0-4,1.7l-2.1,2.1a7.825,7.825,0,0,1-5.4,2.3H32a8.024,8.024,0,0,0-8,8v20a8.024,8.024,0,0,0,8,8H64a8.024,8.024,0,0,0,8-8v-20a8.024,8.024,0,0,0-8-8h-.8a7.412,7.412,0,0,1-5.4-2.3l-2.1-2.1a5.606,5.606,0,0,0-4-1.7Z" fill="#262627"/>
    <path id="Path_18" data-name="Path 18" d="M48,76A10,10,0,1,1,38,86,10.029,10.029,0,0,1,48,76m0-2A12,12,0,1,0,60,86,12.035,12.035,0,0,0,48,74Z" fill="#262627"/>
  </g>
</svg>
