<svg xmlns="http://www.w3.org/2000/svg" width="203.894" height="57.751" viewBox="0 0 203.894 57.751">
  <g id="Instagram_Logo" data-name="Instagram Logo" transform="translate(-273.125 -60.166)">
    <path id="Path_15" data-name="Path 15" d="M283.6,60.4c-4.2,1.7-8.8,6.7-10.2,12.9-1.8,7.8,5.8,11.2,6.4,10.1.7-1.3-1.4-1.7-1.8-5.8-.6-5.3,1.9-11.1,5-13.7.6-.5.5.2.5,1.4,0,2.2-.1,22-.1,26.1,0,5.6-.2,7.4-.6,9.1-.4,1.8-1.1,3-.6,3.4.6.5,3-.7,4.4-2.7a14.69,14.69,0,0,0,2.4-8.3c.1-3.7.1-9.6.1-13,0-3.1.1-12.1-.1-17.6C289,61,285.3,59.6,283.6,60.4Z" fill="#262627"/>
    <path id="Path_16" data-name="Path 16" d="M476,89.7c-.6,0-.9.6-1.1,1.7-.8,3.7-1.6,4.5-2.7,4.5-1.2,0-2.3-1.8-2.6-5.4a120.191,120.191,0,0,1,.1-13.3c.1-1.1-.2-2.1-3.1-3.2-1.2-.5-3-1.1-3.9,1.1A59.451,59.451,0,0,0,458.9,88c0,.1-.1.1-.2-.1-.1-1.6-.5-4.4-.5-10.5a3.128,3.128,0,0,0-1.6-3c-.8-.5-3.4-1.5-4.3-.4-.8.9-1.7,3.4-2.7,6.3-.8,2.4-1.3,4-1.3,4V75.5a1.34,1.34,0,0,0-.8-1.3,23.391,23.391,0,0,0-3.2-.7c-.9,0-1.1.5-1.1,1.2,0,.1-.1,8.4-.1,14.2v.8c-.5,2.7-2.1,6.3-3.8,6.3s-2.5-1.5-2.5-8.5c0-4,.1-5.8.2-8.7,0-1.7.1-3,.1-3.3,0-.9-1.6-1.4-2.3-1.5a6.82,6.82,0,0,0-1.9-.2,1.135,1.135,0,0,0-1.2,1.1v1a7.176,7.176,0,0,0-3.3-2.7c-2.6-.8-5.3-.1-7.3,2.8a17.157,17.157,0,0,0-3,8.5,25.181,25.181,0,0,0,.3,7.8c-.6,2.6-1.7,3.7-3,3.7-1.8,0-3.1-2.9-2.9-8,.1-3.3.8-5.6,1.5-9a2.785,2.785,0,0,0-.6-2.9c-.6-.7-1.8-1-3.6-.6-1.3.3-3.1.6-4.7.9,0,0,.1-.4.2-1.1.4-3.7-3.6-3.4-4.8-2.2a4.322,4.322,0,0,0-1.5,3,3.583,3.583,0,0,0,1.6,3.5,34.378,34.378,0,0,1-3.8,9.4,39.67,39.67,0,0,1-2.4,3.7V91.4c0-6.1.1-10.8.1-12.6,0-1.7.1-2.9.1-3.2,0-.7-.4-.9-1.2-1.2a6.042,6.042,0,0,0-2.4-.5c-1.1-.1-1.8.5-1.7,1.2V76a7.176,7.176,0,0,0-3.3-2.7c-2.6-.8-5.3-.1-7.3,2.8a18.832,18.832,0,0,0-3,8.5,24.612,24.612,0,0,0,.2,7.3c-.4,2-1.6,4.2-2.9,4.2-1.7,0-2.7-1.5-2.7-8.5,0-4,.1-5.8.2-8.7,0-1.7.1-3,.1-3.3,0-.9-1.6-1.4-2.3-1.5a7.182,7.182,0,0,0-1.9-.2,1.175,1.175,0,0,0-1.1,1.1v1a7.176,7.176,0,0,0-3.3-2.7c-2.6-.8-5.3-.1-7.4,2.8-1.3,1.9-2.4,3.9-3,8.5a24.216,24.216,0,0,0-.2,3.7c-.5,3.3-2.9,7-4.8,7-1.1,0-2.2-2.2-2.2-6.9,0-6.2.4-15.1.4-16h2.9c1.2,0,2.3,0,3.9-.1.8,0,1.6-3,.8-3.3a22.943,22.943,0,0,0-4.1-.3c-.9,0-3.4-.2-3.4-.2s.2-5.9.3-6.5c0-.5-.6-.8-1-.9a12.9,12.9,0,0,0-2.8-.8c-1.4-.3-2,0-2.1,1.2-.2,1.8-.3,6.9-.3,6.9-1,0-4.4-.2-5.4-.2-.9,0-1.9,4-.7,4.1,1.5.1,4.1.1,5.8.2,0,0-.1,9-.1,11.8v.9a13.468,13.468,0,0,1-4.3,7.6c.7-3.3-.7-5.7-3.4-7.8-1-.8-2.9-2.2-5-3.8a12.963,12.963,0,0,0,2.3-3.7c.8-1.7.8-3.7-1.1-4.2a5.624,5.624,0,0,0-6.5,4.1,4.659,4.659,0,0,0,.9,4.8l.3.3c-.7,1.4-1.7,3.2-2.5,4.7-2.3,4-4,7.1-5.4,7.1-1.1,0-1-3.2-1-6.2,0-2.6.2-6.5.3-10.5a2.924,2.924,0,0,0-1.7-2.8,7.892,7.892,0,0,0-3-1.2c-1.3,0-4.9.2-8.3,10.1-.4,1.2-1.3,3.5-1.3,3.5l.1-11.9c0-.3-.1-.5-.5-.7a8.615,8.615,0,0,0-3.5-1c-.7,0-1,.3-1,.9L293.9,93a20.076,20.076,0,0,0,.2,3.8,5.557,5.557,0,0,0,.6,1.7,2.1,2.1,0,0,0,1.1.7c.5.1,3.2.5,3.3-.6a43.936,43.936,0,0,1,1.6-7.6c2.2-7.8,5.1-11.6,6.5-13,.2-.2.5-.2.5.1-.1,1.7-.3,6-.4,9.6-.4,9.7,1.4,11.5,3.9,11.5,1.9,0,4.7-1.9,7.6-6.8,1.8-3,3.6-6,4.9-8.1.9.8,1.9,1.7,2.9,2.6,2.3,2.2,3.1,4.3,2.6,6.2-.4,1.5-1.8,3.1-4.4,1.6a11.8,11.8,0,0,1-1.8-1.3,1.41,1.41,0,0,0-1.4-.1,4.738,4.738,0,0,0-1.8,2.8c-.3,1.1.8,1.7,2,2.2a18.854,18.854,0,0,0,4.5.9c5.3.2,9.6-2.6,12.5-9.6.5,6.1,2.8,9.6,6.7,9.6,2.6,0,5.3-3.4,6.4-6.7a9.285,9.285,0,0,0,1.5,3.5c3,4.8,8.9,3.8,11.8-.3a7.168,7.168,0,0,0,1-1.7,5.563,5.563,0,0,0,5.3,5.2c2,0,4-.9,5.5-4.2a8.794,8.794,0,0,0,.6,1c3,4.8,8.9,3.8,11.8-.3a2.181,2.181,0,0,1,.4-.5l.1,2.5s-1.7,1.5-2.7,2.5c-4.5,4.2-8,7.3-8.3,11-.3,4.7,3.5,6.4,6.4,6.7a8.09,8.09,0,0,0,7.3-3.8c1.4-2.1,2.3-6.6,2.3-11,0-1.8-.1-4-.1-6.4a51.481,51.481,0,0,0,5-6.9,54.028,54.028,0,0,0,4.7-10.1s1.7,0,3.5-.1c.6,0,.7.1.6.5-.1.5-2.3,8.7-.3,14.2,1.3,3.8,4.3,5,6.1,5,2.1,0,4.1-1.6,5.2-3.9a4.348,4.348,0,0,0,.4.7c3,4.8,8.9,3.8,11.8-.3a7.228,7.228,0,0,0,1-1.7,5.685,5.685,0,0,0,5.5,5.2c1.8,0,3.6-.8,5-4.1a28.426,28.426,0,0,0,.3,3.1,2.855,2.855,0,0,0,1,.7,8.058,8.058,0,0,0,4,.2c.4-.1.8-.4.8-1.4.1-2.4,0-6.4.8-9.4a27.271,27.271,0,0,1,2.9-7.9c.3-.5.6-.6.7-.1a91.08,91.08,0,0,0,.6,9.1c.3,3.4.8,5.3,1.2,6a3.311,3.311,0,0,0,3.3,1.9c.7,0,2-.2,1.9-1.3a33.59,33.59,0,0,1,1.2-9,40.2,40.2,0,0,1,2.6-7.2c.2-.4.3-.1.3,0-.1,2.2-.3,9.5.6,13.5,1.2,5.4,4.8,6,6,6,2.6,0,4.8-2,5.5-7.3C477.1,90.7,476.8,89.7,476,89.7ZM365.1,86.5a18.457,18.457,0,0,1-1.6,6.9c-1.6,3.1-4.7,4.1-6.1-.4a22.669,22.669,0,0,1-.2-10c.6-3.5,2.2-6,4.6-5.8C364.3,77.4,365.5,80.6,365.1,86.5Zm24.2,0a17.44,17.44,0,0,1-1.6,6.8c-1.5,3.1-4.8,4.1-6.1-.4a21.906,21.906,0,0,1-.2-9.5c.6-3.2,2-6.2,4.6-6.2C388.5,77.2,389.7,79.9,389.3,86.5Zm.7,18.1c0,4.8-.8,9.1-2.4,10.3-2.3,1.7-5.4.4-4.8-3.1.6-3.1,3.3-6.3,7.2-10.2C390,101.6,390,102.5,390,104.6Zm41.7-18.1a16.568,16.568,0,0,1-1.6,6.8c-1.5,3.1-4.8,4.1-6.1-.4a24.877,24.877,0,0,1-.2-9.9c.5-3.5,2.1-6.1,4.6-5.8C430.9,77.4,432,80.6,431.7,86.5Z" fill="#262627"/>
  </g>
</svg>
