<svg xmlns="http://www.w3.org/2000/svg" width="45.1" height="40.204" viewBox="0 0 45.1 40.204">
  <g id="Mesagge" transform="translate(-679.803 -65.896)">
    <path id="Path_19" data-name="Path 19" d="M702.3,106.1h-.2a1.512,1.512,0,0,1-1.2-1.1l-4.1-22.4L680.3,68.5a1.382,1.382,0,0,1-.4-1.6,1.291,1.291,0,0,1,1.3-.9h42.2a1.387,1.387,0,0,1,1.2.7,1.2,1.2,0,0,1,0,1.4l-21.1,37.3A1.273,1.273,0,0,1,702.3,106.1ZM685.1,68.7l14,11.9a1.374,1.374,0,0,1,.5.8l3.5,19.1,18-31.8Z" fill="#262627"/>
    <path id="Path_20" data-name="Path 20" d="M698.2,83.1a1.387,1.387,0,0,1-1.2-.7,1.321,1.321,0,0,1,.5-1.9l25.3-14.4a1.389,1.389,0,1,1,1.4,2.4L698.9,83A1.952,1.952,0,0,1,698.2,83.1Z" fill="#262627"/>
  </g>
</svg>
