<?xml version="1.0" encoding="iso-8859-1"?>
<!-- Generator: Adobe Illustrator 19.0.0, SVG Export Plug-In . SVG Version: 6.00 Build 0)  -->
<svg version="1.1" id="Capa_1" xmlns="http://www.w3.org/2000/svg" xmlns:xlink="http://www.w3.org/1999/xlink" x="0px" y="0px"
	 viewBox="0 0 512 512" style="enable-background:new 0 0 512 512;" xml:space="preserve">
<g>
	<path style="fill:#E92B5F;" d="M64,96h240c35.344,0,64,28.656,64,64v192c0,35.344-28.656,64-64,64H64c-35.344,0-64-28.656-64-64
		V160C0,124.656,28.656,96,64,96z"/>
	<path style="opacity:0.4;fill:#E92B5F;enable-background:new    ;" d="M485.28,121.92L400,198.56v116.32l85.12,78.4
		c6.48,6.016,16.608,5.632,22.608-0.848c2.736-2.944,4.256-6.816,4.272-10.832V133.92c0.064-8.832-7.04-16.048-15.872-16.128
		C492.128,117.76,488.256,119.232,485.28,121.92z"/>
</g>
<g>
</g>
<g>
</g>
<g>
</g>
<g>
</g>
<g>
</g>
<g>
</g>
<g>
</g>
<g>
</g>
<g>
</g>
<g>
</g>
<g>
</g>
<g>
</g>
<g>
</g>
<g>
</g>
<g>
</g>
</svg>
